<?xml version="1.0" encoding="utf-8"?>
<!-- Generator: Adobe Illustrator 23.0.5, SVG Export Plug-In . SVG Version: 6.00 Build 0)  -->
<svg version="1.2" baseProfile="tiny" id="Capa_1" xmlns="http://www.w3.org/2000/svg" xmlns:xlink="http://www.w3.org/1999/xlink"
	 x="0px" y="0px" viewBox="0 0 500 500" xml:space="preserve">
<g>
	<g>
		<path fill="#D494BB" d="M241.51,128.46c1.13,1.98,2.22,3.97,3.21,6.02c0.26,0.53,1.9,4.04,0.84,1.63
			c-0.95-2.13,0.14,0.38,0.25,0.73c0.65,2.04,1.14,4.07,1.67,6.14c-0.07-0.29-0.23-2.8-0.16-0.85c0.04,1.2,0.22,2.41,0.25,3.62
			c0.01,0.71-0.02,1.42-0.02,2.13c0,0.39-0.21,3.32-0.03,1.56c0.16-1.58-0.12,0.68-0.15,0.83c-0.21,0.92-0.4,1.85-0.64,2.76
			c-1.02,3.83-2.55,7.51-4.36,11.03c-7.46,14.56-19.21,27.89-33.41,36.81c-15.01,9.42-33.15,15.72-49.65,23.02
			c-15.4,6.81-32.21,13.92-44.22,26.13c-12.27,12.47-17.32,29.11-14.74,46.33c1.52,10.13,4.45,20.12,9.63,29.03
			c5.42,9.33,12.17,16.4,20.1,23.5c17.53,15.68,36.99,29.29,56.24,42.75c15.65,10.94,31.47,21.66,47.45,32.12
			c6.53,4.27,19.31,4.82,18.77-5.9c-0.6-11.81-10.4-21.18-19.59-27.19c-0.9-0.59-1.79-1.18-2.69-1.77c-1.01-0.67-2.02-1.34-3.03-2
			c-3.07-2.03,1.62,1,2.48,1.65c-0.79-0.6-1.67-1.11-2.5-1.67c-8.28-5.54-16.52-11.14-24.71-16.8
			c-19.45-13.45-38.96-27.08-57.11-42.28c-1.76-1.48-3.47-3.03-5.23-4.5c-1.95-1.63,3.83,3.26,3.1,2.82
			c-0.42-0.25-0.94-0.86-1.27-1.18c-0.78-0.75-1.53-1.53-2.33-2.25c-0.62-0.56-2.21-2.41,0.48,0.67c3.92,4.49-1.13-2.52,1.33,1.77
			c1.96,3.42-0.84-2.06-1.2-2.7c0.1,0.18,1.17,3.47,0.46,1.23c-0.25-0.78-0.54-1.55-0.79-2.34c-0.33-1.07-0.64-2.14-0.91-3.23
			c-0.1-0.38-1.02-4.65-0.67-2.72c0.32,1.76-0.12-0.97-0.13-1.09c-0.1-1.12-0.21-2.23-0.26-3.36c-0.08-1.65-0.03-3.29,0.03-4.94
			c0.11-2.99,0.16-1.65,0.05-0.94c0.17-1.04,0.43-2.09,0.69-3.1c0.53-1.98,1.21-3.93,2.04-5.82c1.51-3.43,1.76-3.83,3.92-6.57
			c2.29-2.91,4.89-5.56,7.7-7.97c2.59-2.23,5.36-4.25,8.23-6.12c3.63-2.36,4.04-2.51,8.28-4.66c8.9-4.5,18.05-8.5,27.21-12.44
			c17-7.31,34.63-14.21,49.96-24.76c15.33-10.55,28.23-27.5,35.53-44.6c8.32-19.5,3.03-40.48-7.08-58.22
			c-5.26-9.23-14.73-20.25-26.28-20.8C237.46,109.46,237.46,121.36,241.51,128.46L241.51,128.46z"/>
	</g>
	<circle fill="#D494BB" cx="229.26" cy="88.97" r="20.32"/>
	<g>
		<path fill="#D37B27" d="M312.92,154.41c0.29,0.41,0.59,0.82,0.88,1.23c1.36,2.08,1.14,1.66-0.65-1.25
			c0.38-0.01,1.87,3.63,2.07,4.01c2.37,4.36-1.1-4.12,0.31,0.64c0.43,1.45,0.91,2.87,1.29,4.33c0.25,0.97,0.45,1.96,0.68,2.94
			c1.06,4.69-0.04-3.38,0.18,1.42c0.16,3.55,0.42,7.02,0.19,10.58c-0.07,1.01-0.15,2.02-0.27,3.02c0.35-2.85-0.42,2-0.44,2.08
			c-0.63,2.95-1.48,5.86-2.54,8.69c-2.23,5.94-4.25,9.49-7.96,13.83c-8.69,10.14-20.39,16.2-32.6,21.04
			c-14.42,5.73-29.29,10.26-43.9,15.48c-23.68,8.45-54.94,19.79-56.54,49.35c-1.02,18.83,11.43,36.36,23.09,49.85
			c10.67,12.34,24.14,22.98,38.48,30.74c14.78,7.99,30.45,12.28,46.78,15.71c7.29,1.53,14.61,3.01,21.79,5
			c3.69,1.02,7.35,2.17,10.93,3.54c0.61,0.23,5.84,2.67,1.64,0.6c2.13,1.04,4.21,2.14,6.26,3.33c6.62,3.83,19.33,5.13,18.77-5.9
			c-0.58-11.33-10.27-21.8-19.59-27.19c-25.12-14.52-53.99-14.65-80.51-24.92c-1-0.39-4.58-1.94-0.71-0.19
			c-1.57-0.71-3.12-1.48-4.65-2.27c-2.24-1.17-5.72-2.43-7.47-4.3c3.62,3.87,0.53,0.36-0.76-0.59c-1.39-1.02-2.76-2.07-4.1-3.15
			c-0.35-0.29-4.86-3.69-1.53-1.19c3.19,2.4-2.01-1.99-2.59-2.59c-1.21-1.24-2.34-2.53-3.52-3.8c-3.89-4.18,2.33,3.35,0.26,0.29
			c-0.82-1.21-1.72-2.4-2.57-3.58c-3.43-4.75,2.11,4.21-0.49-1.01c-2.55-5.13,1.21,3.85-0.63-1.51c-0.99-2.91-0.5-1.47-0.33-0.47
			c-0.28-1.65-0.31-3.46-0.18-5.12c-0.14,1.82,0.75-2.8,0.98-3.44c0.9-2.49,1.42-3.45,2.15-4.46c1.56-2.15,3.41-4.09,5.38-5.87
			c4.46-4.03,8.12-6.31,12.78-8.6c13.35-6.56,27.81-11.01,41.87-15.79c26.37-8.98,56.04-17.87,71.42-42.98
			c16.3-26.62,10.77-60.84-6.73-85.4c-5.22-7.33-17-18.62-27.13-15.35C302.35,134.54,309.03,148.97,312.92,154.41L312.92,154.41z"/>
	</g>
	<g>
		<path fill="#EBCF31" d="M96.69,208.97c-16.39,21.29-28.14,48.58-28.98,75.73c-0.35,11.3,1.87,24.04,10.94,31.73
			c9.96,8.45,23.95,8.36,36.26,8.12c59.64-1.17,124.07-12.14,180.24,14.09c25.06,11.71,49.19,32.25,53.08,61.15
			c0.43,3.2,21.56-7.26,23.18-8.16c5-2.77,10.02-5.66,14.52-9.21c1.56-1.23,5.23-3.52,4.92-5.83c-3.34-24.85-22.06-44.06-43.1-56.01
			c-24.93-14.16-53.6-20.44-81.97-22.5c-30.96-2.25-61.98,0.37-92.92,1.69c-13.32,0.57-28.21,2.44-41.25-1.15
			c-12.28-3.38-18.93-14.2-20.71-26.24c-2.07-14.03,1.13-28.74,5.51-42.03c5.01-15.17,12.64-29.29,22.37-41.94
			c1.98-2.57-3.45-1.51-3.59-1.48c-4.55,0.91-9.52,3.33-13.59,5.35C113.18,196.47,102.6,201.3,96.69,208.97L96.69,208.97z"/>
	</g>
	<g>
		<path fill="#77AADD" d="M370.41,221.55c13.29,11,23.67,35.64,13.19,51.68c-0.53,0.82-1.21,1.59-1.83,2.33
			c0.47-0.56,2.09-1.72-0.24,0.14c3.39-2.71,1.4-0.94,0.54-0.42c4.9-2.96,2.33-1.32,1.2-0.75c7.28-3.64-0.06-0.51-1.08,0.32
			c3.51-2.84,3.7-1.41,0.93-0.46c-1.23,0.42-2.47,0.83-3.71,1.24c-11.99,3.91-23.67,8.12-34.9,13.94
			c-19.65,10.18-37.95,25.24-49.3,44.46c-8.18,13.84-14.46,28.97-19.67,44.15c-5.36,15.62-11.34,34.26-7.8,50.93
			c0.59,2.8,7.36,2.26,8.68,2.14c5.51-0.49,11.64-2.52,16.63-4.78c5.22-2.36,10.54-5.05,14.84-8.9c2.18-1.95,5.05-4.56,4.36-7.8
			c-3.01-14.16,2.47-30.33,6.87-43.64c4.69-14.19,10.28-28.62,17.61-41.69c2.29-4.08,5.08-7.93,8.04-11.55
			c3.53-4.33,4.54-5.42,9.33-9.46c0.85-0.71,1.71-1.4,2.57-2.09c-0.59,0.48-3.09,2.16-0.03,0.09c0.91-0.62,1.84-1.23,2.75-1.86
			c3.83-2.63-0.6,0.57-0.77,0.42c0.03,0.02,2.54-1.4,2.9-1.6c4.81-2.78-3.93,1.62-0.59,0.27c1.02-0.41,2.04-0.86,3.05-1.31
			c2.95-1.29-5.08,1.72-0.83,0.38c10.37-3.29,20.91-6.56,30.74-11.26c11.85-5.66,24.73-12.74,32.08-24.08
			c13.69-21.09,3.72-48.35-14.25-63.21c-2.36-1.95-9.87-0.25-12.05,0.24c-5.9,1.32-12.2,3.77-17.45,6.74
			C378.39,208.29,363.96,216.21,370.41,221.55L370.41,221.55z"/>
	</g>
	
		<ellipse transform="matrix(0.682 -0.7314 0.7314 0.682 -83.504 139.5573)" fill="#EBCF31" cx="118.73" cy="165.8" rx="20.32" ry="20.32"/>
	
		<ellipse transform="matrix(0.9302 -0.367 0.367 0.9302 -15.8255 126.4348)" fill="#D37B27" cx="324.55" cy="104.83" rx="20.32" ry="20.32"/>
	
		<ellipse transform="matrix(0.2544 -0.9671 0.9671 0.2544 113.9919 504.5966)" fill="#77AADD" cx="384.23" cy="178.37" rx="20.32" ry="20.32"/>
</g>
</svg>
